<?xml version="1.0" encoding="UTF-8"?>
<!-- Sourced from https://openclipart.org/detail/319483/ames-window-amez-trapezoid with some modifications. -->
<svg version="1.1" viewBox="0 0 240 240" xmlns="http://www.w3.org/2000/svg" xmlns:cc="http://creativecommons.org/ns#" xmlns:dc="http://purl.org/dc/elements/1.1/" xmlns:osb="http://www.openswatchbook.org/uri/2009/osb" xmlns:rdf="http://www.w3.org/1999/02/22-rdf-syntax-ns#">
  <g transform="translate(-28.5,-72)">
    <g transform="matrix(1.4703 0 0 1.4703 -29.488 -77.78)" stroke="#000" stroke-linejoin="round">
      <path d="m47.93 161.12 135.38-44.619v133.98l-135.38-44.697z M 54.807 179.77652 l 19.371 -0.42522 v -19.324 l -19.371 5.1027 Z M 82.5 178.8655 l 32.84 -1.1339 v -28.894 l -32.982 8.8824 Z M 125.553 177.0933 l 47.012 -1.6513 v -42.077 l -47.215 12.935 Z M 54.807 201.81 l 19.371 5.1027 v -19.324 l -19.371 -0.42522 Z M 82.358 209.39 l 32.982 8.8824 v -28.894 l -32.84 -1.1339 Z M 125.35 220.67 l 47.215 12.935 v -42.077 l -47.012 -1.6513 Z" fill="#fff" stroke-width=".26458" />
      <g fill="#ff7f2a">
        <path d="m183.31 116.5 10.843 3.5697v126.54l-10.843 3.8691z" stroke-width=".33073" />
        <path d="m54.807 165.13 4.8443 1.1359 0.03341 13.377-4.8777 0.13363z" stroke-width=".26458" />
        <path d="m74.178 160.03 0.06682 2.7395-14.594 3.4991-4.8443-1.1359z" stroke-width=".26458" />
        <path d="m54.807 201.81 4.8443-1.1359 0.03341-13.377-4.8777-0.13363z" stroke-width=".26458" />
        <path d="m74.178 206.91 0.06682-2.7395-14.594-3.4991-4.8443 1.1359z" stroke-width=".26458" />
        <path d="m82.358 157.72 7.2035 1.3229v19.539l-7.0618 0.28348z" stroke-width=".30427" />
        <path d="m115.34 148.84v3.7798l-25.779 6.4256-7.2035-1.3229z" stroke-width=".30427" />
        <path d="m82.358 209.39 7.2035-1.3229v-19.539l-7.0618-0.28348z" stroke-width=".30427" />
        <path d="m115.34 218.27v-3.7798l-25.779-6.4256-7.2035 1.3229z" stroke-width=".30427" />
        <path d="m125.35 220.67 9.178-1.9265v-28.454l-8.9752-0.41282z" stroke-width=".33073" />
        <path d="m172.56 233.61v-5.5043l-38.226-9.3573-8.9891 1.9265z" stroke-width=".33073" />
        <path d="m125.33 146.28 9.22 1.9292v28.466l-9.0386 0.43961z" stroke-width=".33073" />
        <path d="m172.56 133.37v5.5043l-38.016 9.339-9.199-1.9082z" stroke-width=".33073" />
      </g>
      <g stroke="none" fill="#000" opacity=".3">
        <path d="M 172.56 133.37 v 5.5043 l -38.016 9.339 v 7.2908 l -9.199 -9.199 Z" />
        <path d="M 115.34 148.84 v 3.7798 l -25.779 6.4256 v 5.8806 l -7.2035 -7.2035 Z" />
        <path d="M 74.178 160.03 l 0.06682 2.7395 l -14.594 3.4991 v 3.7084 l -4.8443 -4.8443 Z" />
        <path d="M 134.528 198.85188 v -8.56238 l -8.9752 -0.41282 Z" />
        <path d="M 89.5615 195.30642 v -6.77832 l -7.0618 -0.28348 Z" />
        <path d="M 59.68471 192.04117 v -4.74407 l -4.8777 -0.13363 Z" />
      </g>
    </g>
  </g>
</svg>
