<?xml version="1.0" encoding="iso-8859-1"?>
<!-- Reference: https://www.svgrepo.com/svg/38586/ruler. -->
<svg version="1.1" id="Layer_1" xmlns="http://www.w3.org/2000/svg" xmlns:xlink="http://www.w3.org/1999/xlink" viewBox="0 0 460 460">
  <mask id="hole" mask-type="luminance">
    <rect x="0" y="0" width="100%" height="100%" fill="white" />
    <circle cx="27%" cy="50%" r=".6%" fill="black" />
  </mask>
  <mask id="top-half" mask-type="luminance">
    <rect x="0" y="0" width="100%" height="50%" fill="white" />
    <circle cx="27%" cy="50%" r=".6%" fill="black" />
  </mask>
  <rect x="25%" y="47.5%" width="50%" height="5%" rx="1%" fill="#E5C400" stroke="black" stroke-width=".6" mask="url(#hole)" />
  <circle cx="27%" cy="50%" r=".6%" stroke="black" stroke-width=".6" fill="transparent" />
  <g fill="#59595A">
    <rect x="49.75%" y="47.5%" width=".5%" height="1.25%" />
    <rect x="47.75%" y="47.5%" width=".5%" height="1.25%" />
    <rect x="45.75%" y="47.5%" width=".5%" height="1.25%" />
    <rect x="43.75%" y="47.5%" width=".5%" height="1.25%" />
    <rect x="41.75%" y="47.5%" width=".5%" height="1.25%" />
    <rect x="39.75%" y="47.5%" width=".5%" height="1.25%" />
    <rect x="37.75%" y="47.5%" width=".5%" height="1.25%" />
    <rect x="35.75%" y="47.5%" width=".5%" height="1.25%" />
    <rect x="33.75%" y="47.5%" width=".5%" height="1.25%" />
    <rect x="31.75%" y="47.5%" width=".5%" height="1.25%" />
    <rect x="29.75%" y="47.5%" width=".5%" height="1.25%" />
    <rect x="27.75%" y="47.5%" width=".5%" height="1.25%" />
    <rect x="51.75%" y="47.5%" width=".5%" height="1.25%" />
    <rect x="53.75%" y="47.5%" width=".5%" height="1.25%" />
    <rect x="55.75%" y="47.5%" width=".5%" height="1.25%" />
    <rect x="57.75%" y="47.5%" width=".5%" height="1.25%" />
    <rect x="59.75%" y="47.5%" width=".5%" height="1.25%" />
    <rect x="61.75%" y="47.5%" width=".5%" height="1.25%" />
    <rect x="63.75%" y="47.5%" width=".5%" height="1.25%" />
    <rect x="65.75%" y="47.5%" width=".5%" height="1.25%" />
    <rect x="67.75%" y="47.5%" width=".5%" height="1.25%" />
    <rect x="69.75%" y="47.5%" width=".5%" height="1.25%" />
    <rect x="71.75%" y="47.5%" width=".5%" height="1.25%" />
  </g>
  <rect x="25%" y="47.5%" width="50%" height="5%" rx="1%" fill="#5B5B5F" opacity=".3" mask="url(#top-half)" />
</svg>